HIERARCHY
ROOT RootJoint
{
    OFFSET   0.000000   0.000000   0.000000
    CHANNELS 6 Xposition Yposition Zposition Xrotation Yrotation Zrotation
    JOINT pelvis_lowerback
    {
        OFFSET   0.000000   0.093605   0.000000
        CHANNELS 3 Xrotation Yrotation Zrotation
        JOINT lowerback_torso
        {
            OFFSET   0.000000   0.100000   0.000000
            CHANNELS 3 Xrotation Yrotation Zrotation
            JOINT torso_head
            {
                OFFSET   0.000000   0.282350   0.000000
                CHANNELS 3 Xrotation Yrotation Zrotation
                End Site
                {
                    OFFSET   0.000000   0.192650   0.000000
                }
            }
            JOINT rTorso_Clavicle
            {
                OFFSET  -0.001000   0.157500   0.000000
                CHANNELS 3 Xrotation Yrotation Zrotation
                JOINT rShoulder
                {
                    OFFSET  -0.117647   0.000000   0.000000
                    CHANNELS 3 Xrotation Yrotation Zrotation
                    JOINT rElbow
                    {
                        OFFSET  -0.245000   0.000000   0.000000
                        CHANNELS 3 Xrotation Yrotation Zrotation
                        JOINT rWrist
                        {
                            OFFSET  -0.240000   0.000000   0.000000
                            CHANNELS 3 Xrotation Yrotation Zrotation
                            End Site
                            {
                                OFFSET  -0.116353  -0.002500   0.000000
                            }
                        }
                    }
                }
            }
            JOINT lTorso_Clavicle
            {
                OFFSET   0.001000   0.157500   0.000000
                CHANNELS 3 Xrotation Yrotation Zrotation
                JOINT lShoulder
                {
                    OFFSET   0.117647   0.000000   0.000000
                    CHANNELS 3 Xrotation Yrotation Zrotation
                    JOINT lElbow
                    {
                        OFFSET   0.245000   0.000000   0.000000
                        CHANNELS 3 Xrotation Yrotation Zrotation
                        JOINT lWrist
                        {
                            OFFSET   0.240000   0.000000   0.000000
                            CHANNELS 3 Xrotation Yrotation Zrotation
                            End Site
                            {
                                OFFSET   0.116353  -0.002500   0.000000
                            }
                        }
                    }
                }
            }
        }
    }
    JOINT rHip
    {
        OFFSET  -0.100000  -0.051395   0.000000
        CHANNELS 3 Xrotation Yrotation Zrotation
        JOINT rKnee
        {
            OFFSET   0.000000  -0.410000   0.000000
            CHANNELS 3 Xrotation Yrotation Zrotation
            JOINT rAnkle
            {
                OFFSET   0.000000  -0.390000   0.000000
                CHANNELS 3 Xrotation Yrotation Zrotation
                JOINT rToeJoint
                {
                    OFFSET   0.000000  -0.050000   0.130000
                    CHANNELS 3 Xrotation Yrotation Zrotation
                    End Site
                    {
                        OFFSET  -0.010000   0.002000   0.060000
                    }
                }
            }
        }
    }
    JOINT lHip
    {
        OFFSET   0.100000  -0.051395   0.000000
        CHANNELS 3 Xrotation Yrotation Zrotation
        JOINT lKnee
        {
            OFFSET   0.000000  -0.410000   0.000000
            CHANNELS 3 Xrotation Yrotation Zrotation
            JOINT lAnkle
            {
                OFFSET   0.000000  -0.390000   0.000000
                CHANNELS 3 Xrotation Yrotation Zrotation
                JOINT lToeJoint
                {
                    OFFSET   0.000000  -0.050000   0.130000
                    CHANNELS 3 Xrotation Yrotation Zrotation
                    End Site
                    {
                        OFFSET   0.010000   0.002000   0.060000
                    }
                }
            }
        }
    }
}
MOTION
Frames: 10
Frame Time:   0.008333
 -2.537467   0.526872   3.389704 -15.457362 -19.006959 -15.927385  61.107062  -4.796201  11.384048   1.742395  -8.128746   3.636144  -4.568790   4.533257  -3.455344   3.920252  -6.801482   7.380844  27.043833  -1.766488  41.809021  -0.001353  41.264101   0.000193   4.960215   8.064157  -1.207137  -5.216792 -19.340469  -4.861177 -14.298854 -19.612160 -15.901792  -0.007825 -63.189426  -0.005556   5.416486  -7.805982  12.012517 -65.641450 -12.242026  -7.673126 104.298874  -0.008984  -0.001204 -23.268366  -8.148238  -1.085051  -0.901039  -0.000071   0.000084  -9.143021  -6.706909  29.552709 125.444665  -0.000714   0.000720 -45.089407  -6.770172  -6.096573 -31.396513   0.006935   0.021010
 -2.540273   0.525143   3.394211 -14.906590 -19.149744 -15.756942  60.968248  -4.791656  11.478837   2.047678  -8.231479   3.792347  -4.661199   4.788927  -3.402560   3.839169  -7.058625   7.449200  26.750750  -2.142780  41.490721  -0.000759  41.126500  -0.000392   5.049874   8.203719  -1.153548  -5.245846 -19.305958  -4.796755 -14.307168 -19.414387 -15.534013  -0.009012 -62.868918  -0.007717   5.547247  -7.745744  12.045372 -66.141189 -12.450295  -7.711615 105.024884  -0.008443  -0.000842 -24.220967  -8.287840  -1.651708  -0.724333   0.000510  -0.000261  -8.793117  -6.909712  29.471467 125.136432   0.001058   0.000059 -44.762126  -6.861373  -6.536362 -34.306779   0.001288   0.024028
 -2.542956   0.523579   3.398743 -14.316697 -19.286708 -15.572808  60.825751  -4.787511  11.613035   2.332219  -8.340450   3.973636  -4.743151   5.033772  -3.343917   3.772259  -7.315014   7.454998  26.480465  -2.522566  41.152115  -0.000271  40.989783  -0.000806   5.129715   8.307318  -1.209106  -5.293088 -19.291015  -4.684652 -14.323411 -19.246550 -15.160341  -0.009797 -62.567106  -0.009517   5.673336  -7.664905  12.023065 -66.643524 -12.639737  -7.748565 105.711122  -0.007758  -0.000557 -25.156450  -8.421875  -2.187343  -0.551659   0.000955  -0.000510  -8.468200  -7.089185  29.371455 124.757170   0.002821  -0.000451 -44.486884  -6.945527  -6.955942 -37.299952  -0.004113   0.026484
 -2.545573   0.522182   3.403306 -13.711488 -19.422257 -15.387846  60.693852  -4.788745  11.773181   2.598108  -8.448175   4.166805  -4.817079   5.262469  -3.283472   3.717820  -7.560273   7.425179  26.232533  -2.892230  40.812348   0.000089  40.856173  -0.001066   5.205598   8.371131  -1.315758  -5.356213 -19.285202  -4.552664 -14.350136 -19.100948 -14.792672  -0.010174 -62.288840  -0.010760   5.797598  -7.595954  12.014508 -67.132559 -12.815200  -7.775336 106.364447  -0.007022  -0.000340 -26.047999  -8.540688  -2.690614  -0.425312   0.001158  -0.000605  -8.169515  -7.246772  29.271660 124.344959   0.004332  -0.000794 -44.244320  -7.023280  -7.351573 -40.140648  -0.008626   0.027600
 -2.548153   0.520947   3.407905 -13.102286 -19.559645 -15.204535  60.574157  -4.795623  11.947830   2.848327  -8.554411   4.364778  -4.884198   5.475690  -3.223374   3.672786  -7.793256   7.376946  26.003890  -3.246114  40.481406   0.000328  40.727445  -0.001204   5.278160   8.406284  -1.444397  -5.428784 -19.286261  -4.412444 -14.383995 -18.973421 -14.437448  -0.010269 -62.032272  -0.011522   5.920286  -7.542912  12.028463 -67.600734 -12.980326  -7.791715 106.989132  -0.006309  -0.000192 -26.891620  -8.644661  -3.163091  -0.355999   0.001136  -0.000581  -7.895876  -7.386278  29.174355 123.920352   0.005533  -0.000994 -44.021612  -7.097377  -7.721933 -42.714400  -0.011967   0.027522
 -2.550712   0.519871   3.412544 -12.494253 -19.701399 -15.023609  60.465793  -4.807574  12.129723   3.084305  -8.659102   4.563276  -4.945563   5.674457  -3.164826   3.634925  -8.013810   7.320376  25.792186  -3.581517  40.164648   0.000466  40.604690  -0.001250   5.347623   8.422887  -1.580398  -5.505842 -19.293120  -4.270652 -14.421979 -18.861163 -14.098373  -0.010177 -61.795359  -0.011901   6.040840  -7.503707  12.059307 -68.044760 -13.138188  -7.798418 107.587487  -0.005659  -0.000108 -27.687930  -8.734818  -3.606205  -0.346035   0.000938  -0.000478  -7.645024  -7.510372  29.079284 123.494480   0.006443  -0.001085 -43.810984  -7.169553  -8.066864 -44.968169  -0.014101   0.026573
 -2.553259   0.518950   3.417223 -11.889301 -19.848997 -14.845228  60.367289  -4.823968  12.314449   3.306764  -8.762051   4.759784  -5.002051   5.859759  -3.108425   3.602605  -8.222018   7.261276  25.595594  -3.897352  39.864685   0.000524  40.488479  -0.001232   5.414169   8.428171  -1.715901  -5.584080 -19.304990  -4.131213 -14.461961 -18.762093 -13.777324  -0.009963 -61.576335  -0.011985   6.158774  -7.475936  12.100545 -68.463737 -13.291222  -7.796315 108.160865  -0.005087  -0.000080 -28.438719  -8.812203  -4.021312  -0.394741   0.000614  -0.000325  -7.414585  -7.620945  28.985835 123.072940   0.007103  -0.001095 -43.607675  -7.240634  -8.386848 -46.884033  -0.015140   0.025044
 -2.555409   0.518463   3.422162 -11.162367 -20.014627 -14.359807  59.997470  -4.919276  12.398900   3.700736  -8.940269   4.989610  -5.056631   6.127000  -3.025360   3.655165  -8.373418   7.221473  25.221442  -4.319964  39.551398   0.000763  40.255320  -0.001372   5.404247   8.493995  -1.736980  -5.606953 -19.452632  -3.802603 -14.397893 -18.735834 -13.428232  -0.012592 -61.196894  -0.016010   6.225537  -7.486145  12.048284 -68.958181 -13.202418  -7.975766 108.700133  -0.004696  -0.000471 -29.401559  -8.846229  -4.435806  -0.157848   0.001147  -0.000658  -7.476083  -7.787009  28.472286 122.842732   0.006900  -0.000758 -43.437547  -7.243836  -8.853476 -46.507263  -0.010832   0.019548
 -2.557488   0.518449   3.427355 -10.421343 -20.204104 -13.849314  59.631572  -4.990043  12.516606   4.076678  -9.103082   5.228780  -5.102833   6.382425  -2.945758   3.708420  -8.512441   7.144646  24.871794  -4.727483  39.227118   0.000824  40.028525  -0.001218   5.389833   8.499170  -1.793648  -5.633272 -19.615006  -3.456687 -14.337499 -18.730500 -13.086029  -0.014492 -60.839362  -0.019156   6.286572  -7.468138  11.901561 -69.396089 -13.091405  -8.148132 109.176021  -0.004333  -0.000855 -30.348301  -8.882208  -4.828189   0.049163   0.001476  -0.000932  -7.581633  -7.911826  27.920729 122.546332   0.007057  -0.000365 -43.124606  -7.293608  -9.243459 -46.205843  -0.007649   0.015062
 -2.559709   0.518823   3.432733  -9.659175 -20.358925 -13.352671  59.276537  -5.053784  12.686659   4.431273  -9.248504   5.496520  -5.142487   6.621553  -2.863531   3.761972  -8.642307   7.049946  24.545916  -5.113930  38.906900   0.000759  39.813736  -0.000931   5.376110   8.478946  -1.867536  -5.665273 -19.771763  -3.113090 -14.285400 -18.733720 -12.754939  -0.015551 -60.509079  -0.021156   6.348508  -7.460240  11.745013 -69.782450 -12.919695  -8.262096 109.613372  -0.003552  -0.001019 -31.208373  -8.787812  -5.206294   0.129866   0.001460  -0.000750  -7.697289  -8.036959  27.410675 122.174289   0.007437   0.000025 -42.758916  -7.353732  -9.583521 -45.964697  -0.005383   0.011574
